<?xml version="1.0" encoding="UTF-8" standalone="no"?>
<svg
   xmlns:dc="http://purl.org/dc/elements/1.1/"
   xmlns:cc="http://creativecommons.org/ns#"
   xmlns:rdf="http://www.w3.org/1999/02/22-rdf-syntax-ns#"
   xmlns:svg="http://www.w3.org/2000/svg"
   xmlns="http://www.w3.org/2000/svg"
   xmlns:sodipodi="http://sodipodi.sourceforge.net/DTD/sodipodi-0.dtd"
   xmlns:inkscape="http://www.inkscape.org/namespaces/inkscape"
   width="33.314507mm"
   height="37.921116mm"
   viewBox="0 0 33.314507 37.921116"
   version="1.1"
   id="svg210"
   inkscape:version="1.0.1 (1.0.1+r74)"
   sodipodi:docname="prueba.svg">
  <defs
     id="defs204">
    <clipPath
       id="a">
      <path
         d="m 239.03,226.605 -42.13,24.317 a 5.085,5.085 0 0 0 -2.546,4.406 v 48.668 c 0,1.817 0.968,3.496 2.546,4.406 l 42.133,24.336 a 5.1,5.1 0 0 0 5.09,0 l 42.126,-24.336 a 5.096,5.096 0 0 0 2.54,-4.406 v -48.668 c 0,-1.816 -0.97,-3.496 -2.55,-4.406 l -42.12,-24.317 a 5.123,5.123 0 0 0 -5.1,0"
         id="path133" />
    </clipPath>
    <linearGradient
       id="b"
       x1="-0.34799999"
       x2="1.251"
       gradientTransform="matrix(-38.064915,77.652126,-77.652126,-38.064915,258.72325,244.62943)"
       gradientUnits="userSpaceOnUse">
      <stop
         offset=".3"
         stop-color="#3e863d"
         id="stop108" />
      <stop
         offset=".5"
         stop-color="#55934f"
         id="stop110" />
      <stop
         offset=".8"
         stop-color="#5aad45"
         id="stop112" />
    </linearGradient>
    <clipPath
       id="c">
      <path
         d="m 195.398,307.086 c 0.403,0.523 0.907,0.976 1.5,1.316 l 36.14,20.875 6.02,3.46 c 0.9,0.52 1.926,0.74 2.934,0.665 0.336,-0.027 0.672,-0.09 1,-0.183 l 44.434,-81.36 c -0.34,-0.37 -0.738,-0.68 -1.184,-0.94 l -27.586,-15.93 -14.582,-8.39 a 5.318,5.318 0 0 0 -1.32,-0.53 z m 0,0"
         id="path136" />
    </clipPath>
    <linearGradient
       id="d"
       x1="-0.456"
       x2="0.58200002"
       gradientTransform="matrix(106.8057,-78.916731,78.916731,106.8057,235.18824,285.39477)"
       gradientUnits="userSpaceOnUse">
      <stop
         offset=".57"
         stop-color="#3e863d"
         id="stop115" />
      <stop
         offset=".72"
         stop-color="#619857"
         id="stop117" />
      <stop
         offset="1"
         stop-color="#76ac64"
         id="stop119" />
    </linearGradient>
    <clipPath
       id="e">
      <path
         d="m 241.066,225.953 a 5.14,5.14 0 0 0 -2.035,0.652 l -42.01,24.247 45.3,82.51 c 0.63,-0.09 1.25,-0.3 1.81,-0.624 l 42.13,-24.336 a 5.105,5.105 0 0 0 2.46,-3.476 l -46.18,-78.89 a 5.29,5.29 0 0 0 -1.03,-0.102 c -0.14,0 -0.28,0.007 -0.42,0.02"
         id="path139" />
    </clipPath>
    <linearGradient
       id="f"
       x1="0.043000001"
       x2="0.98400003"
       gradientTransform="matrix(97.417,0,0,97.417,192.862,279.652)"
       gradientUnits="userSpaceOnUse">
      <stop
         offset=".16"
         stop-color="#6bbf47"
         id="stop122" />
      <stop
         offset=".38"
         stop-color="#79b461"
         id="stop124" />
      <stop
         offset=".47"
         stop-color="#75ac64"
         id="stop126" />
      <stop
         offset=".7"
         stop-color="#659e5a"
         id="stop128" />
      <stop
         offset=".9"
         stop-color="#3e863d"
         id="stop130" />
    </linearGradient>
  </defs>
  <sodipodi:namedview
     id="base"
     pagecolor="#ffffff"
     bordercolor="#666666"
     borderopacity="1.0"
     inkscape:pageopacity="0.0"
     inkscape:pageshadow="2"
     inkscape:zoom="0.35"
     inkscape:cx="68.62602"
     inkscape:cy="71.959888"
     inkscape:document-units="mm"
     inkscape:current-layer="layer1"
     inkscape:document-rotation="0"
     showgrid="false"
     inkscape:window-width="1360"
     inkscape:window-height="717"
     inkscape:window-x="0"
     inkscape:window-y="0"
     inkscape:window-maximized="0" />
  <metadata
     id="metadata207">
    <rdf:RDF>
      <cc:Work
         rdf:about="">
        <dc:format>image/svg+xml</dc:format>
        <dc:type
           rdf:resource="http://purl.org/dc/dcmitype/StillImage" />
        <dc:title></dc:title>
      </cc:Work>
    </rdf:RDF>
  </metadata>
  <g
     inkscape:label="Capa 1"
     inkscape:groupmode="layer"
     id="layer1"
     transform="translate(-87.676032,-129.12728)">
    <g
       clip-path="url(#a)"
       transform="matrix(0.35277713,0,0,0.35277713,19.112386,49.426012)"
       id="g154">
      <path
         fill="url(#b)"
         d="m 331.363,246.793 -118.715,-58.19 -60.87,124.174 118.712,58.193 z m 0,0"
         id="path152"
         style="fill:url(#b)" />
    </g>
    <g
       clip-path="url(#c)"
       transform="matrix(0.35277713,0,0,0.35277713,19.112386,49.426012)"
       id="g158">
      <path
         fill="url(#d)"
         d="m 144.07,264.004 83.825,113.453 110.86,-81.906 -83.83,-113.45 z m 0,0"
         id="path156"
         style="fill:url(#d)" />
    </g>
    <g
       clip-path="url(#e)"
       transform="matrix(0.35277713,0,0,0.35277713,19.112386,49.426012)"
       id="g162">
      <path
         fill="url(#f)"
         d="m 197.02,225.934 v 107.43 h 91.683 v -107.43 z m 0,0"
         id="path160"
         style="fill:url(#f)" />
    </g>
  </g>
</svg>
